<svg width="24" height="24" viewBox="0 0 24 24" fill="none" xmlns="http://www.w3.org/2000/svg">
<g clip-path="url(#clip0_19_110)">
<path d="M16.3043 6.75669C16.3043 6.17362 16.1307 5.59551 15.8023 5.08476C15.1246 4.03172 14.7664 2.77285 14.7664 1.44423V0.522135C14.7664 0.23376 14.5326 0 14.2443 0H9.75595C9.46763 0 9.23382 0.23376 9.23382 0.522135V1.44428C9.23382 2.7729 8.87564 4.03177 8.1979 5.08492C7.86948 5.59551 7.69592 6.17362 7.69592 6.75674C7.69592 7.63727 8.07828 8.46595 8.77659 9.11559V13.1986C8.77659 14.9762 10.2225 16.4224 11.9998 16.4224C13.7774 16.4224 15.2236 14.9762 15.2236 13.1986V9.11559C15.9219 8.4659 16.3043 7.63722 16.3043 6.75669ZM14.1793 13.1985C14.1793 14.4003 13.2016 15.3781 11.9998 15.3781C10.7983 15.3781 9.82086 14.4003 9.82086 13.1985V8.54391C9.82086 7.95222 10.0574 7.40262 10.4583 7.00204C10.5765 7.74661 11.2227 8.31772 12 8.31772C12.7768 8.31772 13.4228 7.74734 13.5415 7.00345C13.9528 7.41516 14.1794 7.9622 14.1794 8.54391V13.1985H14.1793ZM11.4831 6.75659V4.67849C11.4831 4.39345 11.7149 4.16157 11.9999 4.16157C12.285 4.16157 12.5169 4.39345 12.5169 4.67849V6.75659C12.5169 7.04162 12.285 7.2735 11.9999 7.2735C11.7149 7.2735 11.4831 7.04162 11.4831 6.75659ZM15.0777 7.58177C14.9245 7.08997 14.6539 6.63916 14.2792 6.26447C14.0645 6.04977 13.8237 5.86922 13.5611 5.72386V4.67854C13.5611 3.8177 12.8608 3.11736 11.9999 3.11736C11.1391 3.11736 10.4388 3.8177 10.4388 4.67854V5.72271C9.70468 6.12788 9.16662 6.79679 8.92242 7.58193C8.8028 7.31908 8.74009 7.04084 8.74009 6.7568C8.74009 6.36895 8.85313 5.99651 9.07603 5.65003C9.86242 4.42812 10.278 2.97382 10.278 1.44438V1.04427H13.7221V1.44428C13.7221 2.97372 14.1377 4.42802 14.924 5.64976C15.147 5.99646 15.26 6.36885 15.26 6.75669C15.2599 7.04073 15.1972 7.31898 15.0777 7.58177Z" fill="black"/>
<path d="M11.9999 11.0972C11.2308 11.0972 10.605 11.7229 10.605 12.492V13.1985C10.605 13.9676 11.2307 14.5934 11.9999 14.5934C12.769 14.5934 13.3947 13.9676 13.3947 13.1985V12.492C13.3947 11.7229 12.769 11.0972 11.9999 11.0972ZM12.3505 13.1985C12.3505 13.3918 12.1932 13.5491 11.9999 13.5491C11.8066 13.5491 11.6492 13.3918 11.6492 13.1985V12.492C11.6492 12.2987 11.8066 12.1414 11.9999 12.1414C12.1932 12.1414 12.3505 12.2987 12.3505 12.492V13.1985Z" fill="black"/>
<path d="M10.3376 17.7503H12.0832C12.3715 17.7503 12.6053 17.5166 12.6053 17.2282C12.6053 16.9398 12.3715 16.7061 12.0832 16.7061H10.3376C10.0492 16.7061 9.81543 16.9398 9.81543 17.2282C9.81543 17.5166 10.0492 17.7503 10.3376 17.7503Z" fill="black"/>
<path d="M13.6625 17.9561H11.9169C11.6286 17.9561 11.3948 18.1898 11.3948 18.4782C11.3948 18.7666 11.6286 19.0003 11.9169 19.0003H13.6625C13.9508 19.0003 14.1847 18.7666 14.1847 18.4782C14.1847 18.1898 13.9508 17.9561 13.6625 17.9561Z" fill="black"/>
<path d="M10.3376 20.2502H12.0832C12.3715 20.2502 12.6053 20.0164 12.6053 19.7281C12.6053 19.4397 12.3715 19.2059 12.0832 19.2059H10.3376C10.0492 19.2059 9.81543 19.4397 9.81543 19.7281C9.81543 20.0164 10.0492 20.2502 10.3376 20.2502Z" fill="black"/>
<path d="M13.6625 20.4559H11.9169C11.6286 20.4559 11.3948 20.6897 11.3948 20.9781C11.3948 21.2664 11.6286 21.5002 11.9169 21.5002H13.6625C13.9508 21.5002 14.1847 21.2664 14.1847 20.9781C14.1847 20.6897 13.9508 20.4559 13.6625 20.4559Z" fill="black"/>
<path d="M12.6053 22.2278C12.6053 21.9394 12.3715 21.7057 12.0832 21.7057H10.3376C10.0492 21.7057 9.81543 21.9394 9.81543 22.2278C9.81543 22.5162 10.0492 22.75 10.3376 22.75H12.0832C12.3715 22.75 12.6053 22.5162 12.6053 22.2278Z" fill="black"/>
<path d="M13.6625 22.9557H11.9169C11.6286 22.9557 11.3948 23.1894 11.3948 23.4778C11.3948 23.7662 11.6286 24 11.9169 24H13.6625C13.9508 24 14.1847 23.7662 14.1847 23.4778C14.1847 23.1894 13.9508 22.9557 13.6625 22.9557Z" fill="black"/>
</g>
<defs>
<clipPath id="clip0_19_110">
<rect width="24" height="24" fill="white"/>
</clipPath>
</defs>
</svg>
