<svg width="32" height="32" viewBox="0 0 32 32" fill="none" xmlns="http://www.w3.org/2000/svg">
<path d="M21.7021 11.7558C21.5628 11.5701 21.3822 11.4193 21.1745 11.3155C20.9668 11.2116 20.7378 11.1576 20.5056 11.1576H18.2246V9.66187H19.7203C20.117 9.66187 20.4975 9.50428 20.778 9.22378C21.0585 8.94329 21.216 8.56285 21.216 8.16617V5.92262C21.216 5.7262 21.1774 5.5317 21.1022 5.35024C21.027 5.16877 20.9168 5.00389 20.778 4.865C20.6391 4.72611 20.4742 4.61594 20.2927 4.54077C20.1113 4.46561 19.9168 4.42692 19.7203 4.42692H17.6264C16.722 4.41977 15.8319 4.65198 15.0463 5.09998C14.1115 5.66087 12.9897 6.82004 12.9897 9.13837V11.1202H11.494C11.2974 11.1146 11.1019 11.1519 10.9211 11.2294C10.7404 11.3069 10.5786 11.4227 10.447 11.5689C10.1781 11.8537 10.0191 12.2247 9.99829 12.6159V14.8594C9.99829 15.2561 10.1559 15.6365 10.4364 15.917C10.7169 16.1975 11.0973 16.3551 11.494 16.3551H12.9897V26.0772C12.9897 26.2736 13.0284 26.4681 13.1035 26.6495C13.1787 26.831 13.2889 26.9959 13.4278 27.1348C13.5667 27.2737 13.7315 27.3838 13.913 27.459C14.0945 27.5342 14.289 27.5729 14.4854 27.5729H16.7289C16.9254 27.5729 17.1199 27.5342 17.3013 27.459C17.4828 27.3838 17.6477 27.2737 17.7866 27.1348C17.9254 26.9959 18.0356 26.831 18.1108 26.6495C18.186 26.4681 18.2246 26.2736 18.2246 26.0772V16.3551H19.9821C20.3041 16.3514 20.6163 16.2439 20.8723 16.0485C21.1284 15.8532 21.3145 15.5804 21.403 15.2707L21.9265 13.0272C22.0007 12.8137 22.0191 12.5849 21.9798 12.3623C21.9405 12.1398 21.845 11.931 21.7021 11.7558ZM19.9821 14.8594H16.7289V26.0772H14.4854V14.8594H11.494V12.6159H14.4854V9.13837C14.4854 6.10958 17.0281 5.92262 17.6264 5.92262H19.7203V8.16617H17.7759C16.6915 8.16617 16.7289 9.06359 16.7289 9.06359V12.6159H20.5056L19.9821 14.8594Z" fill="black" stroke="black" stroke-width="0.4"/>
</svg>
