<svg width="32" height="32" viewBox="0 0 32 32" fill="none" xmlns="http://www.w3.org/2000/svg">
<path d="M18.3063 15.9787L24.3813 9.87996C25.0562 9.20232 25.0562 8.18586 24.3813 7.50823C23.7062 6.83059 22.6937 6.83059 22.0187 7.50823L15.9437 13.607L9.86875 7.50823C9.19375 6.83059 8.18125 6.83059 7.50625 7.50823C6.83125 8.18586 6.83125 9.20232 7.50625 9.87996L13.5812 15.9787L7.50625 22.0774C6.83125 22.7551 6.83125 23.7715 7.50625 24.4491C7.84375 24.788 8.29375 24.9009 8.74375 24.9009C9.19375 24.9009 9.64375 24.788 9.98125 24.4491L15.9437 18.3504L22.0187 24.4491C22.3562 24.788 22.8062 24.9009 23.2563 24.9009C23.7062 24.9009 24.1562 24.788 24.4937 24.4491C25.1688 23.7715 25.1688 22.7551 24.4937 22.0774L18.3063 15.9787Z" fill="black" stroke="white" stroke-width="0.2"/>
</svg>
