<svg width="56" height="56" viewBox="0 0 56 56" fill="none" xmlns="http://www.w3.org/2000/svg">
<path d="M21.889 8.38127C21.889 5.00321 24.6175 2.27478 27.9955 2.27478C31.3736 2.27478 34.102 5.00321 34.102 8.38127C34.102 14.1629 27.9955 14.8126 27.9955 18.5804C27.9955 14.8126 21.889 14.1629 21.889 8.38127ZM42.9369 18.1906L42.6121 18.1257C42.2873 18.0607 41.9625 18.0607 41.6377 17.9957C41.4428 17.9957 41.1829 17.9957 40.9231 18.0607C37.2202 18.1257 32.5429 19.5548 30.5291 18.5804C32.9327 19.7497 34.4918 25.5964 37.8049 28.2598L37.8698 28.3248L38.0647 28.5197C38.1297 28.5197 38.1297 28.5846 38.1947 28.5846C38.2596 28.6496 38.3246 28.6496 38.3895 28.7146C38.5844 28.8445 38.8443 28.9744 39.0392 29.1043C41.9625 30.4686 45.4055 29.2343 46.8347 26.3109C48.1989 23.3876 46.9646 19.9446 44.0413 18.5154C43.7165 18.4505 43.3267 18.3205 42.9369 18.1906ZM11.9498 18.5804C9.02644 19.9446 7.79215 23.4526 9.15636 26.3759C10.5206 29.2992 14.0286 30.5335 16.9519 29.1693C17.2117 29.0394 17.4066 28.9095 17.6015 28.7795C17.6665 28.7146 17.7314 28.7146 17.7964 28.6496C17.8614 28.6496 17.8614 28.5846 17.9263 28.5846L18.1212 28.3898L18.1862 28.3248C21.4993 25.6613 23.0584 19.8147 25.462 18.6454C23.3832 19.6198 18.7708 18.1906 15.068 18.1257C14.8081 18.1257 14.6132 18.0607 14.3534 18.0607C14.0286 18.0607 13.7037 18.1257 13.3789 18.1906L13.0541 18.2556V18.3205C12.6643 18.3205 12.2746 18.4505 11.9498 18.5804Z" fill="url(#paint0_linear_562_224)"/>
<path d="M21.4993 37.1597H34.4918C33.3225 39.4983 30.8539 41.1224 27.9955 41.1224C25.1372 41.1224 22.7336 39.4983 21.4993 37.1597Z" fill="black"/>
<path d="M29.6846 22.8679H26.1116C27.151 21.3088 27.9306 19.8147 27.9306 18.5804C27.9956 19.8147 28.7101 21.2439 29.6846 22.8679Z" fill="black"/>
<path d="M33.3225 28.4547H22.4737C22.9934 27.4803 23.643 26.5708 24.2277 25.6613H31.5685C32.1531 26.5708 32.7378 27.5452 33.3225 28.4547Z" fill="black"/>
<path d="M35.2714 33.8466C35.2714 33.9765 35.2714 34.1714 35.2714 34.3014H20.7197C20.7197 34.1714 20.7197 33.9765 20.7197 33.8466C20.7197 33.5218 20.7197 33.197 20.7847 32.8722C20.7847 32.7423 20.7847 32.6773 20.8496 32.5474C20.8496 32.4824 20.8496 32.4175 20.8496 32.3525L20.9146 31.9627V31.8978C20.9796 31.6379 21.0445 31.443 21.1095 31.1832H34.7517C34.8166 31.443 34.9465 31.7029 35.0115 31.9627L35.0765 32.3525C35.2064 32.8722 35.2714 33.3919 35.2714 33.8466Z" fill="black"/>
<path d="M13.0541 46.5793C12.9892 46.5793 12.8592 46.5793 12.7943 46.5793C12.7943 46.5793 12.7943 46.5793 12.7293 46.5793H12.6643C11.9498 46.5793 11.3001 46.8391 10.8454 47.2939V43.2662C10.8454 43.2012 10.7804 43.2012 10.7804 43.2012C10.7155 43.2012 10.7155 43.2012 10.7155 43.2662C10.0009 44.3706 8.63666 44.4355 8.63666 46.3844V52.6208C8.63666 53.2704 9.15636 53.7252 9.74102 53.7252H10.7155C10.7804 53.7252 10.7804 53.6602 10.7804 53.6602V53.0106C11.2352 53.4653 11.8848 53.7252 12.5994 53.7252H12.6643C12.6643 53.7252 12.6643 53.7252 12.7293 53.7252C14.2884 53.7252 15.5877 52.1661 15.5877 50.1522C15.6526 48.2683 14.4833 46.7742 13.0541 46.5793ZM12.1446 52.1661H12.0797C11.6249 52.1661 11.1702 51.8413 10.9753 51.3865C10.8454 51.1267 10.7804 50.8668 10.7804 50.607V49.6325C10.7804 49.1778 10.9104 48.853 11.1702 48.5282C11.4301 48.2683 11.7549 48.0734 12.0797 48.0734H12.1446C12.7943 48.0734 13.314 48.788 13.4439 49.6975C13.4439 49.8274 13.4439 49.9573 13.4439 50.1522C13.5089 51.2566 12.9242 52.1661 12.1446 52.1661Z" fill="black"/>
<path d="M32.0882 48.2683L33.7772 44.2407H36.1808L33.1925 50.1523V53.4654H30.9188V50.1523L27.9305 44.2407H30.3342L32.0882 48.2683Z" fill="#FFC800"/>
<path d="M34.3618 49.9574C34.3618 49.2428 34.4917 48.6581 34.7516 48.1384C35.0114 47.6187 35.4012 47.164 35.9209 46.9041C36.4406 46.6443 37.0253 46.4494 37.6749 46.4494C38.7143 46.4494 39.4939 46.7742 40.0785 47.4238C40.6632 48.0735 40.988 48.918 40.988 50.0224V50.0873C40.988 51.1267 40.6632 51.9712 40.0785 52.6209C39.4939 53.2705 38.7143 53.5303 37.6749 53.5303C36.7005 53.5303 35.9209 53.2705 35.3363 52.6858C34.7516 52.1012 34.4268 51.3216 34.3618 50.2822V49.9574ZM36.5056 50.0873C36.5056 50.7369 36.6355 51.1917 36.8304 51.4515C37.0253 51.7763 37.3501 51.9063 37.7399 51.9063C38.5194 51.9063 38.9092 51.3216 38.9092 50.1523V49.9574C38.9092 48.7231 38.5194 48.1384 37.7399 48.1384C37.0253 48.1384 36.6355 48.6581 36.5705 49.6975L36.5056 50.0873Z" fill="#FFC800"/>
<path d="M45.3406 52.6858C44.8858 53.2704 44.3012 53.5303 43.5216 53.5303C42.7421 53.5303 42.2224 53.3354 41.8326 52.8807C41.4428 52.4259 41.2479 51.8413 41.2479 50.9967V46.5793H43.3917V50.9967C43.3917 51.5814 43.6515 51.9062 44.2362 51.9062C44.7559 51.9062 45.0807 51.7113 45.2756 51.3865V46.5793H47.4194V53.4004H45.4055L45.3406 52.6858Z" fill="#FFC800"/>
<path d="M22.6036 49.2428C22.4737 48.5932 22.1489 48.0085 21.6941 47.6187C21.1095 47.0341 20.265 46.6443 19.2905 46.6443C17.4066 46.6443 15.9125 48.1384 15.9125 50.0223V50.3472C15.9125 52.2311 17.4066 53.7252 19.2256 53.7252H19.2905C20.8496 53.7252 21.5642 53.0756 22.2139 52.426V52.361V52.296L21.1095 51.5814C21.1095 51.5814 21.1095 51.5814 21.0445 51.5814H20.9796C20.5248 51.9063 20.265 52.296 19.2905 52.2311C18.7059 52.1661 18.1862 51.5815 18.1212 50.8669H22.5387C22.6036 50.8669 22.6036 50.8669 22.6036 50.8019C22.6036 50.8019 22.6036 50.8019 22.6036 50.7369C22.6036 50.607 22.6036 50.4771 22.6036 50.3472V50.0223C22.6686 49.6975 22.6036 49.5026 22.6036 49.2428ZM18.1212 49.4377C18.1862 49.1129 18.3161 48.7881 18.511 48.5932C18.7708 48.3333 19.0956 48.1384 19.4205 48.1384H19.4854C20.0701 48.1384 20.5898 48.6581 20.7197 49.4377H18.1212Z" fill="black"/>
<path d="M29.6196 49.2428C29.4897 48.5932 29.1649 48.0085 28.7101 47.6187C28.1255 47.0341 27.281 46.6443 26.3065 46.6443C24.4226 46.6443 22.9285 48.1384 22.9285 50.0223V50.3472C22.9285 52.2311 24.4226 53.7252 26.2416 53.7252H26.3065C27.8656 53.7252 28.5802 53.0756 29.2298 52.426V52.361V52.296L28.1255 51.5814C28.1255 51.5814 28.1255 51.5814 28.0605 51.5814H27.9956C27.5408 51.9063 27.281 52.296 26.3065 52.2311C25.7219 52.1661 25.2022 51.5815 25.1372 50.8669H29.5547C29.6196 50.8669 29.6196 50.8669 29.6196 50.8019C29.6196 50.8019 29.6196 50.8019 29.6196 50.7369C29.6196 50.607 29.6196 50.4771 29.6196 50.3472V50.0223C29.6846 49.6975 29.6196 49.5026 29.6196 49.2428ZM25.1372 49.4377C25.2022 49.1129 25.3321 48.7881 25.527 48.5932C25.7868 48.3333 26.1116 48.1384 26.4365 48.1384H26.5014C27.0861 48.1384 27.6058 48.6581 27.7357 49.4377H25.1372Z" fill="black"/>
<defs>
<linearGradient id="paint0_linear_562_224" x1="39.4757" y1="34.2153" x2="16.5171" y2="11.2567" gradientUnits="userSpaceOnUse">
<stop stop-color="#FFAF00"/>
<stop offset="1" stop-color="#FFDC00"/>
</linearGradient>
</defs>
</svg>
